<?xml version="1.0" encoding="iso-8859-1"?>
<!-- Uploaded to: SVG Repo, www.svgrepo.com, Generator: SVG Repo Mixer Tools -->
<svg fill="#000000" height="800px" width="800px" version="1.1" id="Layer_1" xmlns="http://www.w3.org/2000/svg" xmlns:xlink="http://www.w3.org/1999/xlink" 
	 viewBox="0 0 511.999 511.999" xml:space="preserve">
<g>
	<g>
		<path d="M282.229,39.443c-1.366-2.365-3.889-3.822-6.62-3.822h-41.646c-2.732,0-5.254,1.458-6.62,3.822s-1.366,5.279,0,7.645
			l10.411,18.033c0.493,0.854,1.147,1.605,1.925,2.211l10.412,8.102c1.38,1.074,3.037,1.612,4.695,1.612
			c1.657,0,3.314-0.537,4.695-1.612l10.411-8.102c0.779-0.605,1.432-1.357,1.925-2.211l10.412-18.033
			C283.595,44.723,283.595,41.808,282.229,39.443z M259.323,56.183l-4.538,3.531l-4.538-3.531l-3.045-5.273h15.165L259.323,56.183z"
			/>
	</g>
</g>
<g>
	<g>
		<path d="M281.014,223.67c-2.985-2.985-7.826-2.985-10.811,0c-7.604,7.603-19.975,7.602-27.578,0
			c-2.985-2.985-7.826-2.985-10.811,0c-2.986,2.986-2.986,7.826,0,10.811c6.782,6.782,15.691,10.174,24.6,10.174
			c8.909,0,17.818-3.391,24.6-10.174C283.999,231.495,283.999,226.655,281.014,223.67z"/>
	</g>
</g>
<g>
	<g>
		<circle cx="221.441" cy="189.548" r="9.513"/>
	</g>
</g>
<g>
	<g>
		<circle cx="285.127" cy="189.548" r="9.513"/>
	</g>
</g>
<g>
	<g>
		<path d="M345.794,316.123h-53.442v-13.222c29.189-8.483,50.569-35.2,50.569-66.778v-7.846
			c15.517-3.494,27.145-17.377,27.145-33.933c0-16.556-11.629-30.439-27.145-33.932v-16.695v-9.691v-9.729l27.694-25.645
			c0.497-0.461,0.933-0.986,1.291-1.562c5.669-9.083,7.175-20.179,4.132-30.444c-3.043-10.265-10.353-18.749-20.057-23.275
			L270.549,3.517c-10.051-4.69-21.583-4.69-31.634,0l-85.433,39.851c-9.704,4.526-17.013,13.01-20.057,23.275
			c-3.044,10.264-1.537,21.361,4.132,30.444c0.359,0.575,0.793,1.101,1.291,1.562l27.8,25.743v9.631v2.456c0,0.009,0,0.019,0,0.029
			v7.206v16.695c-15.516,3.494-27.145,17.377-27.145,33.932c0,16.556,11.628,30.439,27.145,33.933v7.846
			c0,32.45,22.57,59.781,52.998,67.452v12.549h-53.441c-22.763,0-41.281,18.519-41.281,41.281v36.286v25.349v85.316
			c0,4.222,3.423,7.645,7.645,7.645H379.43c4.222,0,7.645-3.423,7.645-7.645V357.405
			C387.075,334.642,368.556,316.123,345.794,316.123z M166.649,212.279c-6.963-2.978-11.855-9.895-11.855-17.935
			s4.893-14.956,11.855-17.935V212.279z M339.134,331.414h6.659c1.989-0.001,3.922,0.231,5.783,0.656v16.847h-12.443V331.414z
			 M327.632,126.984c-42.999-32.263-102.696-32.262-145.694,0v-2.798c40.804-38.504,104.891-38.503,145.694,0V126.984z
			 M317.015,138.161c-43.386,22.555-84.507,22.67-124.929,0.334C229.115,111.376,279.874,111.268,317.015,138.161z M354.777,194.343
			c0,8.04-4.893,14.956-11.855,17.935v-35.871C349.884,179.387,354.777,186.303,354.777,194.343z M150.043,88.179
			c-2.95-5.213-3.667-11.423-1.958-17.189c1.8-6.071,6.123-11.088,11.861-13.765l85.433-39.851c5.945-2.773,12.763-2.773,18.708,0
			l85.433,39.851c5.738,2.677,10.061,7.694,11.86,13.765c1.709,5.767,0.992,11.977-1.959,17.189l-24.109,22.326
			c-45.84-40.642-115.286-40.626-161.107,0.048L150.043,88.179z M181.939,236.123v-85.828
			c23.233,13.346,46.993,20.043,71.167,20.043c24.465,0,49.351-6.849,74.527-20.519v86.305c0,29.949-24.71,54.314-55.083,54.314
			h-35.527C206.648,290.437,181.939,266.072,181.939,236.123z M246.613,358.711h18.775v60.164L256,426.477l-9.388-7.602V358.711z
			 M257.971,338.768c-0.645-0.172-1.309-0.258-1.971-0.258c-0.663,0-1.325,0.086-1.971,0.258l-19.092,5.094v-12.449h42.126v12.448
			L257.971,338.768z M234.937,316.124v-10.398h2.084h35.528h4.513v10.398H234.937z M161.67,331.817
			c1.474-0.261,2.988-0.405,4.536-0.405h7.907v17.503H161.67V331.817z M140.214,401.336h9.356v10.059h-9.356V401.336z
			 M189.403,496.712v-98.985c0-4.222-3.423-7.645-7.645-7.645s-7.645,3.423-7.645,7.645v98.985h-33.9v-70.027h17.001
			c4.222,0,7.645-3.423,7.645-7.645v-25.349c0-4.222-3.423-7.645-7.645-7.645h-17.001v-28.641c0-6.393,2.325-12.251,6.167-16.783
			v15.939c0,4.222,3.423,7.645,7.645,7.645h27.732c2.278,0,4.319-1.002,5.719-2.584l57.001,135.09H189.403z M191.325,331.413h28.323
			v22.401c-0.001,2.376,1.103,4.616,2.987,6.063c1.884,1.446,4.332,1.936,6.627,1.324l2.06-0.549v61.871
			c0,2.307,1.041,4.489,2.834,5.941l17.033,13.793c1.403,1.135,3.107,1.703,4.811,1.703c1.704,0,3.409-0.568,4.811-1.703
			l17.033-13.793c1.792-1.451,2.834-3.635,2.834-5.941v-61.871l2.06,0.549c0.65,0.173,1.312,0.258,1.97,0.258
			c1.667,0,3.308-0.545,4.657-1.582c1.884-1.446,2.988-3.688,2.988-6.063v-22.401h28.323L256,484.691L191.325,331.413z
			 M371.787,496.711h-0.001h-32.651v-98.985c0-4.222-3.423-7.645-7.645-7.645c-4.222,0-7.645,3.423-7.645,7.645v98.985h-56.322
			l57.453-136.162c1.344,2.19,3.754,3.657,6.513,3.657h27.732c4.222,0,7.645-3.423,7.645-7.645v-14.346
			c3.091,4.276,4.92,9.521,4.92,15.19V496.711z"/>
	</g>
</g>
</svg>